<svg width="26" height="30" viewBox="0 0 26 30" fill="none" xmlns="http://www.w3.org/2000/svg">
<g clip-path="url(#clip0_5_533)">
<path fill-rule="evenodd" clip-rule="evenodd" d="M15.182 10.6866C16.0997 10.229 17.2674 9.5554 18.4365 8.6325C18.683 9.1444 18.71 9.5911 18.583 9.9518C18.493 10.206 18.3234 10.4271 18.1004 10.603C17.8589 10.7931 17.5573 10.9315 17.2239 11.0063C16.5913 11.1488 15.8527 11.0656 15.182 10.6866ZM15.3411 15.3752L16.5559 16.0769C14.0755 17.4671 13.4012 20.0485 12.6002 22.5628C11.7993 20.0485 11.1249 17.4671 8.64457 16.0769L9.85937 15.3752C9.97689 15.3308 10.0773 15.2503 10.1463 15.1453C10.2153 15.0403 10.2493 14.9162 10.2434 14.7907C10.1321 12.436 10.7679 11.3947 11.6255 10.7409C11.9331 10.5067 12.2689 10.3891 12.6002 10.3891C12.9315 10.3891 13.2673 10.5067 13.575 10.7409C14.4326 11.3947 15.0684 12.436 14.9571 14.7907C14.9512 14.9162 14.9852 15.0403 15.0541 15.1453C15.1231 15.2503 15.2236 15.3308 15.3411 15.3752ZM12.6002 0C14.0044 0.0377 15.4121 0.3103 16.6338 0.8406C17.4798 1.2083 18.2692 1.694 18.984 2.2748C19.3068 2.537 19.5726 2.7903 19.8654 3.0819C20.6551 3.1092 21.8092 2.2319 22.345 1.411C21.4229 4.434 17.2151 8.0039 14.302 9.3699C14.3008 9.3694 14.3 9.3687 14.2991 9.3681C13.7763 8.9689 13.1883 8.7693 12.6002 8.7693C12.0121 8.7693 11.4242 8.9689 10.9014 9.3681C10.9005 9.3686 10.8997 9.3695 10.8985 9.3699C7.98527 8.0039 3.77757 4.434 2.85547 1.411C3.39117 2.2319 4.54527 3.1092 5.33497 3.0819C5.62787 2.7904 5.89367 2.537 6.21637 2.2748C6.93117 1.694 7.72057 1.2083 8.56657 0.8406C9.78837 0.3103 11.1961 0.0377 12.6002 0ZM10.0184 10.6866C9.10077 10.229 7.93297 9.5554 6.76397 8.6325C6.51747 9.1444 6.49047 9.5911 6.61737 9.9518C6.70747 10.206 6.87707 10.4271 7.09997 10.603C7.34157 10.7931 7.64317 10.9315 7.97657 11.0063C8.60917 11.1488 9.34767 11.0656 10.0184 10.6866Z" fill="white"/>
<path fill-rule="evenodd" clip-rule="evenodd" d="M19.7167 7.5016C20.3603 6.8521 20.9274 6.1332 21.3834 5.4917L21.615 5.9276C22.3606 7.4193 22.748 8.905 22.748 10.577L22.7464 13.2302L22.7604 14.6056C22.8144 17.9822 23.545 21.3985 25.2 24.5249L21.7373 21.7327L19.2872 25.7086L16.7132 23.2855L12.6 29.9604L8.4868 23.2856L5.9129 25.7087L3.4628 21.7328L0 24.525C1.655 21.3986 2.3856 17.9823 2.4397 14.6057L2.4537 13.2303L2.4521 10.5771C2.4521 8.905 2.8394 7.4193 3.5852 5.9277L3.8167 5.4918C4.2727 6.1333 4.8397 6.8521 5.4834 7.5017L5.2824 7.9192C4.8919 8.7301 4.7626 9.6368 5.0668 10.4991C5.2629 11.0545 5.6208 11.5308 6.0822 11.8944C6.5302 12.2475 7.0604 12.4855 7.6155 12.6105C7.9771 12.6919 8.3455 12.7254 8.7115 12.714C8.6261 13.1981 8.5888 13.7002 8.5864 14.2118L5.32 16.0984L7.8406 17.5113C8.04206 17.6243 8.23385 17.7537 8.414 17.8982C10.4921 19.764 11.7415 25.2837 12.6001 27.9798C13.4588 25.2837 14.7081 19.764 16.7863 17.8982C16.9664 17.7536 17.1582 17.6242 17.3597 17.5113L19.8803 16.0984L16.6138 14.2118C16.6114 13.7002 16.5741 13.1981 16.4887 12.714C16.8547 12.7254 17.2231 12.6919 17.5847 12.6105C18.1398 12.4855 18.6701 12.2475 19.118 11.8944C19.5793 11.5308 19.9373 11.0545 20.1333 10.4991C20.4376 9.6368 20.3082 8.7302 19.9178 7.9192L19.7168 7.5017L19.7167 7.5016Z" fill="white"/>
</g>
<defs>
<clipPath id="clip0_5_533">
<rect width="25.2" height="30" fill="white"/>
</clipPath>
</defs>
</svg>
